<?xml version="1.0" standalone="no"?>
<!DOCTYPE svg PUBLIC "-//W3C//DTD SVG 20010904//EN"
 "http://www.w3.org/TR/2001/REC-SVG-20010904/DTD/svg10.dtd">
<svg version="1.0" xmlns="http://www.w3.org/2000/svg"
 width="656.000000pt" height="656.000000pt" viewBox="0 0 656.000000 656.000000"
 preserveAspectRatio="xMidYMid meet">
<metadata>
Created by potrace 1.14, written by Peter Selinger 2001-2017
</metadata>
<g transform="translate(0.000000,656.000000) scale(0.100000,-0.100000)"
fill="#000000" stroke="none">
<path d="M2490 6020 c0 -41 -2 -934 -3 -1985 -2 -1050 -6 -1923 -10 -1940 -17
-69 -40 -142 -55 -175 -19 -42 -81 -132 -99 -143 -7 -5 -21 -16 -31 -26 -60
-60 -196 -103 -327 -101 -113 1 -166 12 -250 50 -190 86 -297 299 -306 607
l-2 51 -39 4 c-22 2 -42 0 -44 -4 -3 -5 -10 -6 -15 -2 -8 5 -52 5 -254 3 -5 0
-125 0 -265 1 -140 0 -259 0 -265 -1 -5 -1 -14 -1 -19 0 -11 2 -287 2 -301 0
-5 -1 -14 0 -20 1 -18 4 -128 0 -133 -5 -5 -5 -3 -149 3 -209 25 -235 21 -214
50 -340 35 -160 75 -276 140 -410 42 -87 84 -165 95 -176 3 -3 21 -27 40 -55
19 -27 38 -51 42 -53 4 -2 8 -8 8 -12 0 -16 136 -159 221 -233 72 -62 259
-184 357 -232 50 -25 94 -45 97 -45 3 0 22 -7 43 -17 20 -9 39 -17 42 -17 3
-1 34 -11 70 -23 123 -41 223 -62 405 -88 180 -26 484 -25 690 1 41 5 212 38
250 48 6 2 24 6 40 10 66 17 255 92 331 131 283 148 510 368 658 637 27 51
118 256 117 265 0 2 1 8 3 15 45 159 61 228 71 309 4 30 9 65 11 79 15 108 18
408 18 2165 l1 1990 -682 0 -683 0 0 -75z"/>
<path d="M5530 1903 c-292 -31 -482 -134 -622 -336 -43 -63 -96 -183 -103
-232 -2 -16 -4 -30 -5 -30 -12 0 -17 -195 -7 -265 10 -71 51 -204 67 -220 8
-8 29 -42 43 -70 18 -37 105 -127 163 -170 42 -32 163 -100 179 -101 2 0 20
-6 40 -15 19 -8 35 -12 35 -9 0 3 9 1 19 -4 10 -6 34 -13 52 -15 19 -3 50 -8
69 -11 50 -8 227 -9 280 0 195 30 342 102 464 228 84 89 154 200 171 274 2 10
11 44 18 75 13 54 15 233 4 300 -12 68 -82 238 -98 238 -5 0 -9 6 -9 14 0 34
-248 257 -290 261 -3 0 -16 7 -28 14 -30 16 -136 51 -171 56 -14 2 -44 7 -65
10 -43 7 -166 12 -206 8z"/>
</g>
</svg>
