<svg width="41" height="37" viewBox="0 0 41 37" fill="none" xmlns="http://www.w3.org/2000/svg">
<path d="M24.1 0.899999V24.8C24.1 28.5 23.05 31.35 20.95 33.35C18.8833 35.35 16.0833 36.35 12.55 36.35C8.85 36.35 5.88333 35.3 3.65 33.2C1.41667 31.1 0.3 28.1167 0.3 24.25H8.8C8.8 25.7167 9.1 26.8333 9.7 27.6C10.3 28.3333 11.1667 28.7 12.3 28.7C13.3333 28.7 14.1333 28.3667 14.7 27.7C15.2667 27.0333 15.55 26.0667 15.55 24.8V0.899999H24.1ZM35.0063 36.4C33.5063 36.4 32.2729 35.9667 31.3063 35.1C30.3729 34.2 29.9063 33.1 29.9063 31.8C29.9063 30.4667 30.3729 29.35 31.3063 28.45C32.2729 27.55 33.5063 27.1 35.0063 27.1C36.4729 27.1 37.6729 27.55 38.6063 28.45C39.5729 29.35 40.0563 30.4667 40.0563 31.8C40.0563 33.1 39.5729 34.2 38.6063 35.1C37.6729 35.9667 36.4729 36.4 35.0063 36.4Z" fill="#FEB633"/>
</svg>
